<?xml version="1.0" encoding="utf-8"?>
<svg xmlns="http://www.w3.org/2000/svg" xmlns:xlink="http://www.w3.org/1999/xlink" width="1358" height="600" preserveAspectRatio="xMidYMid" viewBox="0 0 1358 600" style="z-index:1;display:block;animation-play-state:paused" >
<g transform="translate(679,300) scale(1,-1) translate(-679,-300)" style="transform:matrix(1, 0, 0, -1, 0, 600);animation-play-state:paused" >

<g transform="translate(1054.5606773821655,8.685277398740368) scale(100)" opacity="0.4" style="transform:matrix(100, 0, 0, 100, 1054.56, 8.68528);opacity:0.4;animation-play-state:paused" >
<path d="M4.610409999999999 0 C4.610409999999999 1.0931899999999997 4.78630030651306 1.501064688836889 4.23970530651306 2.4477949999999993 S3.25193531116311 3.446137181861813 2.305205 3.992732181861813 S1.0931899999999999 4.895589999999999 2.9976843117188953e-16 4.895589999999999 S-1.3584746888368884 4.539327181861813 -2.3052049999999986 3.9927321818618133 S-3.6931103065130584 3.3945253111631115 -4.239705306513058 2.4477950000000015 S-4.610409999999999 1.0931900000000003 -4.610409999999999 5.646123849256947e-16 S-4.786300306513059 -1.501064688836888 -4.23970530651306 -2.4477949999999984 S-3.2519353111631117 -3.446137181861811 -2.3052050000000017 -3.9927321818618116 S-1.0931900000000006 -4.895589999999999 -8.993052935156685e-16 -4.895589999999999 S1.358474688836886 -4.539327181861814 2.3052049999999964 -3.9927321818618147 S3.693110306513058 -3.394525311163112 4.239705306513058 -2.447795000000002 S4.610409999999999 -1.0931900000000008 4.610409999999999 -1.1292247698513894e-15" fill="#ff00ff" stroke-width="0" transform="matrix(1,0,0,1,0,0)" style="transform:matrix(1, 0, 0, 1, 0, 0);animation-play-state:paused" >
</path>
</g>

<g transform="translate(1129.6728128585987,-49.577667121511524) scale(100)" opacity="0.4" style="transform:matrix(100, 0, 0, 100, 1129.67, -49.5777);opacity:0.4;animation-play-state:paused" >
<path d="M5.532491999999999 0 C5.532491999999999 1.3118279999999995 5.743560367815672 1.801277626604267 5.087646367815672 2.937353999999999 S3.902322373395732 4.135364618234175 2.7662459999999998 4.791278618234175 S1.311828 5.874707999999999 3.597221174062674e-16 5.874707999999999 S-1.6301696266042658 5.447192618234175 -2.766245999999998 4.791278618234176 S-4.431732367815671 4.073430373395733 -5.087646367815671 2.9373540000000014 S-5.532491999999999 1.3118280000000002 -5.532491999999999 6.775348619108337e-16 S-5.743560367815672 -1.8012776266042654 -5.0876463678156725 -2.937353999999998 S-3.9023223733957337 -4.135364618234174 -2.766246000000002 -4.791278618234174 S-1.3118280000000007 -5.874707999999999 -1.079166352218802e-15 -5.874707999999999 S1.6301696266042631 -5.447192618234177 2.7662459999999958 -4.791278618234178 S4.43173236781567 -4.073430373395734 5.08764636781567 -2.9373540000000022 S5.532491999999999 -1.3118280000000009 5.532491999999999 -1.3550697238216674e-15" fill="#00c6ff" stroke-width="0" transform="matrix(1,0,0,1,0,0)" style="transform:matrix(1, 0, 0, 1, 0, 0);animation-play-state:paused" ></path>
</g>

<g transform="translate(1309.9419380020381,-189.40873397011615) scale(100)" opacity="0.4" style="transform:matrix(100, 0, 0, 100, 1309.94, -189.409);opacity:0.4;animation-play-state:paused" >
<path d="M7.745488799999998 0 C7.745488799999998 1.8365591999999993 8.040984514941938 2.5217886772459726 7.122704914941939 4.112295599999998 S5.463251322754025 5.789510465527845 3.8727443999999998 6.707790065527845 S1.8365591999999997 8.224591199999997 5.036109643687742e-16 8.224591199999997 S-2.282237477245972 7.626069665527845 -3.872744399999997 6.7077900655278455 S-6.204425314941937 5.702802522754026 -7.122704914941937 4.112295600000001 S-7.745488799999998 1.8365592000000002 -7.745488799999998 9.48548806675167e-16 S-8.04098451494194 -2.5217886772459703 -7.12270491494194 -4.112295599999996 S-5.463251322754027 -5.789510465527842 -3.8727444000000024 -6.707790065527843 S-1.8365592000000008 -8.224591199999997 -1.5108328931063226e-15 -8.224591199999997 S2.282237477245968 -7.626069665527846 3.8727443999999935 -6.707790065527848 S6.204425314941936 -5.702802522754027 7.122704914941936 -4.112295600000002 S7.745488799999997 -1.8365592000000013 7.745488799999998 -1.897097613350334e-15" fill="#00ffff" stroke-width="0" transform="matrix(1,0,0,1,0,0)" style="transform:matrix(1, 0, 0, 1, 0, 0);animation-play-state:paused" ></path>
</g>

</g>
</svg>